<?xml version="1.0" standalone="no"?><!DOCTYPE svg PUBLIC "-//W3C//DTD SVG 1.1//EN" "http://www.w3.org/Graphics/SVG/1.1/DTD/svg11.dtd"><svg t="1666185636044" class="icon" viewBox="0 0 1024 1024" version="1.1" xmlns="http://www.w3.org/2000/svg" p-id="3372" xmlns:xlink="http://www.w3.org/1999/xlink" width="200" height="200"><path d="M233 519.6s3.3 160.2 21.7 252.1c4.3 21.7 20.2 39.3 41.4 45.8 78.2 23.9 280.4 72.7 409.5-12.8 14.4-9.5 24.3-24.4 27-41.5 9.5-60.6 32-219.9 18-292.8L233 519.6z" fill="#E88C1B" p-id="3373"></path><path d="M254.7 771.7c4.3 21.7 20.2 39.3 41.4 45.8 37.8 11.5 104.4 28.8 177.8 34.1 53.1-4.3 105.5-17.8 149.5-46.9 14.4-9.5 24.3-24.4 27-41.5 9.2-58.6 30.5-209.3 19.2-285.1L233 519.6s3.3 160.2 21.7 252.1z" fill="#FADE2F" p-id="3374"></path><path d="M656.2 724.2c9.9-70.7 22.7-183.8 13.4-246.2L233 519.6s2.4 113.8 14.1 204.6h409.1z" fill="#FBC831" p-id="3375"></path><path d="M894.3 458.2h-50.5v233.6h50.5z" fill="#FE5E21" p-id="3376"></path><path d="M83.6 390.3l422-216.3c8.1-4.1 17.7-3.9 25.6 0.6l376.6 215.1c18.1 10.3 18.1 36.4 0 46.7L507.3 664.2c-8.2 4.7-18.4 4.7-26.6 0L82.6 437.6c-18.6-10.6-18-37.6 1-47.3z" fill="#263FEC" p-id="3377"></path><path d="M757.6 389.6L439.5 207.9 83.6 390.3c-19 9.7-19.6 36.7-1 47.3L419 629.1l338.6-192.8c18.1-10.3 18.1-36.4 0-46.7z" fill="#2784FA" p-id="3378"></path><path d="M757.6 389.6l-219-125.1-355.8 182.4c-18.8 9.6-19.5 35.9-1.7 46.8L419 629.1l338.6-192.8c18.1-10.3 18.1-36.4 0-46.7z" fill="#3FABFB" p-id="3379"></path><path d="M870.4 667.7c-47.7 0-86.4 38.7-86.4 86.4v38.5c0 20.2 16.4 36.5 36.5 36.5h99.7c20.2 0 36.5-16.4 36.5-36.5v-38.5c0.1-47.7-38.6-86.4-86.3-86.4z" fill="#FB6F22" p-id="3380"></path></svg>